<?xml version="1.0" encoding="UTF-8"?>
<!DOCTYPE svg PUBLIC "-//W3C//DTD SVG 1.1//EN" "http://www.w3.org/Graphics/SVG/1.1/DTD/svg11.dtd">
<svg xmlns="http://www.w3.org/2000/svg" version="1.1" width="249px" height="144px" style="shape-rendering:geometricPrecision; text-rendering:geometricPrecision; image-rendering:optimizeQuality; fill-rule:evenodd; clip-rule:evenodd" xmlns:xlink="http://www.w3.org/1999/xlink">
<g><path style="opacity:0.896" fill="#0375dd" d="M 134.5,-0.5 C 137.5,-0.5 140.5,-0.5 143.5,-0.5C 145.269,1.42633 147.435,2.75966 150,3.5C 154.487,2.02726 158.987,1.69393 163.5,2.5C 162.604,6.88239 161.604,11.2157 160.5,15.5C 142.232,18.0272 126.232,25.3606 112.5,37.5C 105.72,45.5655 103.887,54.5655 107,64.5C 109.928,68.381 113.761,70.881 118.5,72C 124.746,73.5409 131.079,74.5409 137.5,75C 125.118,79.7953 112.784,79.462 100.5,74C 93.1654,69.0002 89.4987,62.0002 89.5,53C 90.0973,45.6461 92.264,38.8128 96,32.5C 99.1667,28.6667 102.333,24.8333 105.5,21C 100.437,20.7521 95.4366,20.0855 90.5,19C 86.9954,18.3426 83.9954,16.8426 81.5,14.5C 88.4374,14.7464 95.4374,13.9131 102.5,12C 113.377,8.04978 124.043,3.88311 134.5,-0.5 Z"/></g>
<g><path style="opacity:0.818" fill="#0075dd" d="M 131.5,25.5 C 140.5,25.5 149.5,25.5 158.5,25.5C 157.268,29.1337 155.601,32.6337 153.5,36C 146.394,36.0737 139.394,36.7403 132.5,38C 130.244,41.845 128.244,45.845 126.5,50C 128.5,50.6667 130.5,50.6667 132.5,50C 131.833,49.6667 131.167,49.3333 130.5,49C 131.5,47.3333 132.5,45.6667 133.5,44C 143.161,43.5002 152.828,43.3335 162.5,43.5C 160.305,50.2475 157.805,56.9141 155,63.5C 153.5,66.3333 151.333,68.5 148.5,70C 139.896,71.5425 131.23,71.8758 122.5,71C 119.556,68.278 117.223,65.1113 115.5,61.5C 124.816,60.6679 134.149,60.1679 143.5,60C 146.436,57.8865 148.436,55.0531 149.5,51.5C 148.277,50.3861 146.944,50.2195 145.5,51C 145.833,51.3333 146.167,51.6667 146.5,52C 145.643,52.6891 144.977,53.5224 144.5,54.5C 134.856,55.4984 125.19,55.8318 115.5,55.5C 117.81,47.2053 120.977,39.2053 125,31.5C 127.063,29.2659 129.229,27.2659 131.5,25.5 Z"/></g>
<g><path style="opacity:0.918" fill="#84a6d8" d="M 165.5,31.5 C 166.64,32.8014 167.973,33.9681 169.5,35C 168.956,35.7172 168.289,36.2172 167.5,36.5C 167.607,34.6214 167.107,34.2881 166,35.5C 165.51,34.2068 165.343,32.8734 165.5,31.5 Z"/></g>
<g><path style="opacity:0.949" fill="#3e83db" d="M 165.5,31.5 C 165.343,32.8734 165.51,34.2068 166,35.5C 167.107,34.2881 167.607,34.6214 167.5,36.5C 166.199,37.64 165.032,38.9733 164,40.5C 162.959,38.4148 161.459,36.7481 159.5,35.5C 161.297,34.3049 162.297,32.6382 162.5,30.5C 163.791,30.2627 164.791,30.596 165.5,31.5 Z"/></g>
<g><path style="opacity:0.837" fill="#333333" d="M -0.5,114.5 C -0.5,111.5 -0.5,108.5 -0.5,105.5C 0.977392,103.193 2.97739,101.36 5.5,100C 13.8533,99.1683 22.1866,99.3349 30.5,100.5C 30.9202,102.326 30.9202,104.326 30.5,106.5C 23.5314,107.18 16.5314,107.346 9.5,107C 7.68231,110.387 8.68231,112.387 12.5,113C 17.5,113.333 22.5,113.667 27.5,114C 28.6667,115.167 29.8333,116.333 31,117.5C 31.6667,121.5 31.6667,125.5 31,129.5C 29.7727,131.726 27.9393,133.226 25.5,134C 17.5069,134.5 9.50694,134.666 1.5,134.5C 1.5,132.167 1.5,129.833 1.5,127.5C 8.5433,127.72 15.5433,127.386 22.5,126.5C 22.7394,124.533 22.4061,122.699 21.5,121C 15.4187,120.862 9.41868,120.196 3.5,119C 2.26683,117.333 0.933498,115.833 -0.5,114.5 Z"/></g>
<g><path style="opacity:0.718" fill="#323232" d="M 36.5,99.5 C 39.1667,99.5 41.8333,99.5 44.5,99.5C 46.1667,106.5 43.5,109.167 36.5,107.5C 36.5,104.833 36.5,102.167 36.5,99.5 Z"/></g>
<g><path style="opacity:0.757" fill="#323232" d="M 121.5,99.5 C 124.167,99.5 126.833,99.5 129.5,99.5C 129.5,111.167 129.5,122.833 129.5,134.5C 126.833,134.5 124.167,134.5 121.5,134.5C 121.5,122.833 121.5,111.167 121.5,99.5 Z"/></g>
<g><path style="opacity:0.822" fill="#323333" d="M 169.5,101.5 C 168.167,103.833 168.167,106.167 169.5,108.5C 169.5,110.167 169.5,111.833 169.5,113.5C 173.5,113.5 177.5,113.5 181.5,113.5C 181.5,108.833 181.5,104.167 181.5,99.5C 184.5,99.5 187.5,99.5 190.5,99.5C 190.5,111.167 190.5,122.833 190.5,134.5C 187.5,134.5 184.5,134.5 181.5,134.5C 181.5,129.833 181.5,125.167 181.5,120.5C 177.5,120.5 173.5,120.5 169.5,120.5C 169.5,125.167 169.5,129.833 169.5,134.5C 166.833,134.5 164.167,134.5 161.5,134.5C 161.149,122.792 161.149,111.125 161.5,99.5C 164.698,98.9644 167.365,99.631 169.5,101.5 Z"/></g>
<g><path style="opacity:0.676" fill="#767878" d="M 169.5,101.5 C 170.332,103.573 170.332,105.907 169.5,108.5C 168.167,106.167 168.167,103.833 169.5,101.5 Z"/></g>
<g><path style="opacity:0.827" fill="#333333" d="M 36.5,108.5 C 39.1667,108.5 41.8333,108.5 44.5,108.5C 44.5,117.167 44.5,125.833 44.5,134.5C 41.8333,134.5 39.1667,134.5 36.5,134.5C 36.5,125.833 36.5,117.167 36.5,108.5 Z"/></g>
<g><path style="opacity:0.814" fill="#333333" d="M 49.5,108.5 C 59.8387,108.334 70.172,108.5 80.5,109C 83.3892,110.226 85.2225,112.393 86,115.5C 86.4995,121.825 86.6662,128.158 86.5,134.5C 83.8333,134.5 81.1667,134.5 78.5,134.5C 78.6662,128.491 78.4995,122.491 78,116.5C 75.9935,115.331 73.8268,114.665 71.5,114.5C 71.5,121.167 71.5,127.833 71.5,134.5C 68.8333,134.5 66.1667,134.5 63.5,134.5C 63.5,127.833 63.5,121.167 63.5,114.5C 61.5,114.5 59.5,114.5 57.5,114.5C 57.5,121.167 57.5,127.833 57.5,134.5C 54.8333,134.5 52.1667,134.5 49.5,134.5C 49.5,125.833 49.5,117.167 49.5,108.5 Z"/></g>
<g><path style="opacity:0.83" fill="#333333" d="M 99.5,143.5 C 96.8333,143.5 94.1667,143.5 91.5,143.5C 91.5,131.833 91.5,120.167 91.5,108.5C 97.5092,108.334 103.509,108.501 109.5,109C 115.38,111.256 118.38,115.589 118.5,122C 116.275,132.127 109.942,136.294 99.5,134.5C 99.5,137.5 99.5,140.5 99.5,143.5 Z M 99.5,114.5 C 102.956,114.596 106.123,115.596 109,117.5C 110.789,125.047 107.789,128.713 100,128.5C 99.5008,123.845 99.3342,119.179 99.5,114.5 Z"/></g>
<g><path style="opacity:0.82" fill="#333333" d="M 141.5,108.5 C 146.5,108.5 151.5,108.5 156.5,108.5C 156.5,110.5 156.5,112.5 156.5,114.5C 153.15,114.335 149.817,114.502 146.5,115C 144.714,115.196 143.381,116.029 142.5,117.5C 147.12,118.493 151.786,118.827 156.5,118.5C 156.5,120.5 156.5,122.5 156.5,124.5C 151.786,124.173 147.12,124.507 142.5,125.5C 142.709,126.086 143.043,126.586 143.5,127C 147.821,127.499 152.154,127.666 156.5,127.5C 156.5,129.833 156.5,132.167 156.5,134.5C 151.489,134.666 146.489,134.499 141.5,134C 134.047,129.381 131.88,122.881 135,114.5C 136.737,111.926 138.904,109.926 141.5,108.5 Z"/></g>
<g><path style="opacity:0.797" fill="#333333" d="M 196.5,108.5 C 217.211,104.378 225.377,112.711 221,133.5C 213.58,134.647 206.08,134.813 198.5,134C 193.247,129.064 193.247,124.064 198.5,119C 203.202,118.828 207.868,118.328 212.5,117.5C 211.286,115.931 209.619,115.098 207.5,115C 203.514,114.501 199.514,114.334 195.5,114.5C 195.325,112.379 195.659,110.379 196.5,108.5 Z M 203.5,124.5 C 206.5,124.5 209.5,124.5 212.5,124.5C 212.5,125.5 212.5,126.5 212.5,127.5C 209.102,127.82 205.768,127.487 202.5,126.5C 202.863,125.817 203.196,125.15 203.5,124.5 Z"/></g>
<g><path style="opacity:0.79" fill="#333333" d="M 248.5,108.5 C 248.5,110.5 248.5,112.5 248.5,114.5C 243.768,114.378 239.102,114.878 234.5,116C 231.571,120.062 231.904,123.728 235.5,127C 239.917,127.228 244.25,127.728 248.5,128.5C 248.5,130.167 248.5,131.833 248.5,133.5C 241.665,135.189 234.999,134.689 228.5,132C 222.874,124.326 223.208,116.993 229.5,110C 235.715,108.584 242.048,108.084 248.5,108.5 Z"/></g>
</svg>
